name 900006 ik
datacolumns 165
datarows 4
range 0.7083333333333333 0.7333333333333332
cursor 1.0 1.0 0.0
keys m_key
wrap
enforce_loops no
enforce_constraints no
calc_derivatives 0.008333
event_color 1.000000 0.000000 1.000000
endheader

time	calcn_r_tx	calcn_r_ty	calcn_r_tz	calcn_r_r1	calcn_r_r2	calcn_r_r3	calcn_l_tx	calcn_l_ty	calcn_l_tz	calcn_l_r1	calcn_l_r2	calcn_l_r3	pelvis_tz	pelvis_tx	pelvis_ty	pelvis_tilt	pelvis_list	pelvis_rotation	hip_flexion_r	hip_adduction_r	hip_rotation_r	knee_angle_r	ankle_angle_r	subtalar_angle_r	mtp_angle_r	hip_flexion_l	hip_adduction_l	hip_rotation_l	knee_angle_l	ankle_angle_l	subtalar_angle_l	mtp_angle_l	lumbar_extension	lumbar_bending	lumbar_rotation	ground_force_px	ground_force_py	ground_force_pz	ground_force_vx	ground_force_vy	ground_force_vz	ground_force_px	ground_force_py	ground_force_pz	ground_force_vx	ground_force_vy	ground_force_vz	ground_torque_x	ground_torque_y	ground_torque_z	ground_torque_x	ground_torque_y	ground_torque_z	 midhip_px	 midhip_py	 midhip_pz	 hip_r_px	 hip_r_py	 hip_r_pz	 hip_l_px	 hip_l_py	 hip_l_pz	 knee_r_px	 knee_r_py	 knee_r_pz	 knee_l_px	 knee_l_py	 knee_l_pz	 ankle_r_px	 ankle_r_py	 ankle_r_pz	 ankle_l_px	 ankle_l_py	 ankle_l_pz	 midasis_px	 midasis_py	 midasis_pz	 asis_r_px	 asis_r_py	 asis_r_pz	 asis_l_px	 asis_l_py	 asis_l_pz	 psis_r_px	 psis_r_py	 psis_r_pz	 psis_l_px	 psis_l_py	 psis_l_pz	 epicondLat_r_px	 epicondLat_r_py	 epicondLat_r_pz	 epicondLat_l_px	 epicondLat_l_py	 epicondLat_l_pz	 epicondMed_r_px	 epicondMed_r_py	 epicondMed_r_pz	 epicondMed_l_px	 epicondMed_l_py	 epicondMed_l_pz	 malleolusLat_r_px	 malleolusLat_r_py	 malleolusLat_r_pz	 malleolusLat_l_px	 malleolusLat_l_py	 malleolusLat_l_pz	 malleolusMedv_r_px	 malleolusMedv_r_py	 malleolusMedv_r_pz	 malleolusMedv_l_px	 malleolusMedv_l_py	 malleolusMedv_l_pz	 sternalnotch_px	 sternalnotch_py	 sternalnotch_pz	 xyphoidprocess_px	 xyphoidprocess_py	 xyphoidprocess_pz	 neck_px	 neck_py	 neck_pz	 toe_r_px	 toe_r_py	 toe_r_pz	 toe_l_px	 toe_l_py	 toe_l_pz	 thighwand_r_px	 thighwand_r_py	 thighwand_r_pz	 thighwand_l_px	 thighwand_l_py	 thighwand_l_pz	 upperleg1_r_px	 upperleg1_r_py	 upperleg1_r_pz	 upperleg1_l_px	 upperleg1_l_py	 upperleg1_l_pz	 upperleg2_r_px	 upperleg2_r_py	 upperleg2_r_pz	 upperleg2_l_px	 upperleg2_l_py	 upperleg2_l_pz	 shankwand_r_px	 shankwand_r_py	 shankwand_r_pz	 shankwand_l_px	 shankwand_l_py	 shankwand_l_pz	 lowerleg1_r_px	 lowerleg1_r_py	 lowerleg1_r_pz	 lowerleg1_l_px	 lowerleg1_l_py	 lowerleg1_l_pz	 subclavicle_r_px	 subclavicle_r_py	 subclavicle_r_pz	 subclavicle_l_px	 subclavicle_l_py	 subclavicle_l_pz	
      0.7083333333333333	      1.9383108336709804	      0.0358059936961928	     -0.1982131346531509	      2.3839705110461371	      2.5469682025471925	      4.7869557230870781	      1.4673175280990425	      0.1050408169937364	     -0.2651109814920294	     -2.3221514677193178	      8.5568947847292840	    -26.4190685396258010	     -0.2634236050141077	      1.8683407473585310	      0.8149554711553028	      2.1536032688547948	     -0.9812793753401922	      3.5150941185715987	     19.9831259409968920	      2.5174047128547778	     -2.5170911275419297	    -14.6816268606770010	     -2.5006875182670112	      0.0000000000000000	      0.0000000000000000	    -14.3806343153864610	      2.6461759809988252	     -6.4798763919368074	    -22.9230954535868570	      8.9170765402380603	      0.0000000000000000	      0.0000000000000000	     -3.9648574936366376	      3.7248978827652537	     -4.3557763015946156	      1.9715052591120892	      0.0000000000000000	     -0.2045860079111020	    -38.1279110094709490	    240.9299700265818600	      9.0478139275646132	      1.6227246126324062	      0.0000000000000000	     -0.2749493987269838	     54.8973621493309030	    301.4613024945740000	     -7.0961622449194088	      0.0000000000000000	     -0.2127605062727062	      0.0000000000000000	      0.0000000000000000	      0.2521171546400438	      0.0000000000000000	      1.8327820321998463	      0.7540167239337485	     -0.2630822248829027	      1.8284107328050450	      0.7525315310503833	     -0.2058410745546389	      1.8371529543624001	      0.7555019959819098	     -0.3203233952439605	      1.9030714567963527	      0.4121407858551194	     -0.1972667523700665	      1.7007327502080267	      0.4289487475955862	     -0.3016354506106629	      1.9868914831076190	      0.0658935102096054	     -0.2058166700197117	      1.5213884710323542	      0.1125155158042715	     -0.2763739196181189	      1.8669942714838013	      0.8272105819671662	     -0.2591047634210131	      1.8737185812714925	      0.8305636662438919	     -0.1497208679974917	      1.8602694931205173	      0.8238572043069513	     -0.3684887552038973	      1.6927550660067732	      0.8562450188046172	     -0.2098617927766151	      1.6906691238649816	      0.8545165111475701	     -0.2635266411933821	      1.9386519667720112	      0.4217207192132372	     -0.1379157427311296	      1.7135975982502074	      0.4062405497213478	     -0.3581327087091245	      1.9099345294162426	      0.4175784485705724	     -0.2604907036859301	      1.7397665219642116	      0.4136146541150594	     -0.2401265486136490	      1.9819741379230873	      0.0640135045123850	     -0.1686851165106677	      1.5129935993512658	      0.1150630460274828	     -0.3118076912218818	      1.9893485436132572	      0.0624131098781914	     -0.2394289485121574	      1.5204147250194737	      0.1171014833415780	     -0.2428608662582648	      1.8559765313173666	      1.1791339830813974	     -0.2554599227569233	      1.8653164509338904	      1.0775443143155679	     -0.2613200960969524	      1.7476971698750212	      1.2483779855298593	     -0.2494509042418402	      2.0695319532551659	      0.0579229677611238	     -0.2029977127419055	      1.5918174364546960	      0.0547144543741812	     -0.2836135169554483	      2.0029538512420912	      0.5892398947242704	     -0.1728295604766773	      1.8564493386305705	      0.5338155716610220	     -0.3949303035908962	      1.9438042856588873	      0.6068906552044220	     -0.1305700276915414	      1.8564439878326757	      0.5817709894179807	     -0.3275777763535949	      1.9502213590191795	      0.5502564557216110	     -0.1380184907060930	      1.8358593945966928	      0.5277985409350321	     -0.3163429267981144	      2.0817308363532629	      0.2052490476770330	     -0.1791034315184262	      1.5613880012092061	      0.1967595518681663	     -0.4086106066042179	      2.0095306027153206	      0.1776695816512763	     -0.1969202947778446	      1.5627210730718035	      0.1927257244459594	     -0.3294395676475264	      1.8579886183705432	      1.1774867841796948	     -0.1987041717839538	      1.8595408511557856	      1.1811517189469076	     -0.3059628255734718	
      0.7166666666666666	      1.9394247533912801	      0.0367243009712982	     -0.1969895392392673	      2.2539959114616992	      3.4495094597965297	      3.7833409552156074	      1.4713060163007001	      0.1117323352780993	     -0.2672202373539138	     -2.2753580363067831	      8.4287234520026146	    -29.3017128039209640	     -0.2626172404538066	      1.8769211594716253	      0.8162616434696676	      2.2338751480637788	     -1.2100359460328904	      3.4723521624738898	     19.6101061892245170	      2.9480812177668709	     -1.6687282855204242	    -15.2186009110642570	     -2.6574693133666298	     -0.0000000000000000	      0.0000000000000000	    -14.2007510290281780	      2.2017819249259523	     -6.1161465659763783	    -24.2389861726632430	      7.0555830348141839	      0.0000000000000000	      0.0000000000000000	     -3.9862775275143645	      3.9705823201766637	     -3.9989349401253418	      1.9748166606367228	      0.0000000000000000	     -0.2038375475976962	    -41.9321831214391810	    251.9299610088172900	      5.7807132865501911	      1.6236073026482813	      0.0000000000000000	     -0.2745375088536008	     53.6051965779093390	    273.4230155996915000	     -8.1741277548693336	      0.0000000000000000	     -0.2149141010903375	      0.0000000000000000	      0.0000000000000000	      0.2848130942439883	      0.0000000000000000	      1.8408817188503634	      0.7551304726010180	     -0.2627029873860440	      1.8363575331141579	      0.7537278352883682	     -0.2054716164401238	      1.8454054968092020	      0.7565331243287973	     -0.3199344559961830	      1.9102203935366220	      0.4136307095574605	     -0.1971781834804849	      1.7113127969022817	      0.4288261749867937	     -0.3027127372304608	      1.9879301186488521	      0.0656033575254998	     -0.2056763871130775	      1.5257962738370277	      0.1164617816774477	     -0.2773732029602745	      1.8750008167433521	      0.8283147582989516	     -0.2587537391852233	      1.8814597583425454	      0.8317946954228381	     -0.1493401089026248	      1.8685412961215004	      0.8248344791294031	     -0.3681674005204141	      1.7006161611550916	      0.8572050388284198	     -0.2103975000714849	      1.6989508956515653	      0.8553874347903971	     -0.2640702811152842	      1.9452981374769061	      0.4223966988237591	     -0.1379669377059480	      1.7234701761149045	      0.4064226421929281	     -0.3593420961686456	      1.9160956566532545	      0.4189554715422043	     -0.2606511851559210	      1.7496995523377257	      0.4137062441816017	     -0.2404639602927525	      1.9833655336344811	      0.0638583635420020	     -0.1684924001857640	      1.5174131823481849	      0.1191652597131668	     -0.3128007075860916	      1.9899144254737413	      0.0619606341550849	     -0.2392900859314955	      1.5252056162915797	      0.1210292904548694	     -0.2438863116804622	      1.8633382542429184	      1.1803293068049490	     -0.2547561098102295	      1.8727293046740845	      1.0787623714328844	     -0.2609205209202996	      1.7550989960513157	      1.2494397705528772	     -0.2482445352729261	      2.0705877171861760	      0.0562966741779066	     -0.2033510931727663	      1.5942034350971706	      0.0553968727609963	     -0.2841172015020949	      2.0102382611116871	      0.5897018053531064	     -0.1740707953314552	      1.8663149767093905	      0.5347529209407368	     -0.3947418346859390	      1.9520860352219720	      0.6083355478180303	     -0.1313924292095176	      1.8655785978244701	      0.5827687111281600	     -0.3271642835137384	      1.9582439952762392	      0.5516642176455673	     -0.1388434409936488	      1.8453429423268679	      0.5286631677318420	     -0.3160819878323756	      2.0851357399884605	      0.2036997766741691	     -0.1801618745683908	      1.5672057082101050	      0.2000991521814865	     -0.4096941114310396	      2.0122179377857403	      0.1768472141352722	     -0.1971034615600233	      1.5687101441569384	      0.1958376276868560	     -0.3306185458174134	      1.8655257214735905	      1.1785347500267600	     -0.1981501917795170	      1.8667460263564408	      1.1824811510367432	     -0.3051251249591252	
      0.7249999999999999	      1.9405158324781844	      0.0368836026986994	     -0.1958816065149615	      2.1530286655700923	      3.8210991906964678	      3.0641408189931458	      1.4763189072798519	      0.1173356483065701	     -0.2685401353366018	     -2.3378605574446265	      8.2652285020343879	    -31.4067948521853640	     -0.2621756780826618	      1.8845102022911071	      0.8172480728459886	      2.3207542243056740	     -1.1787611213790905	      3.3019804033489781	     19.2025490258975930	      3.0210846465281476	     -1.0978361294357735	    -15.6007751348796940	     -2.6885445807178860	      0.0000000000000000	      0.0000000000000000	    -13.9274247971565150	      2.1839133086382536	     -5.8795254532815164	    -25.5229418095873330	      5.8368233066727839	      0.0000000000000000	      0.0000000000000000	     -3.9935100645579360	      4.1445750424763750	     -3.7329121097181654	      1.9780638550117164	      0.0000000000000000	     -0.2031018066072358	    -45.1284216243123030	    262.5724090643275900	      1.7245566438689266	      1.6243414329429502	      0.0000000000000000	     -0.2742441088986740	     51.5803619507501170	    242.3432031047128400	     -8.7189499790370864	      0.0000000000000000	     -0.1936402011771206	      0.0000000000000000	      0.0000000000000000	      0.3112292114815153	      0.0000000000000000	      1.8489593874904255	      0.7564064259667573	     -0.2622621004708183	      1.8442687475243127	      0.7550673270167880	     -0.2050423438533451	      1.8536496334328429	      0.7577454466014592	     -0.3194820343237766	      1.9169442356531687	      0.4150321284210168	     -0.1969389269042478	      1.7225583818985886	      0.4284238772378268	     -0.3039900605641842	      1.9887253293137725	      0.0653556029218667	     -0.2055272843449216	      1.5308531545816690	      0.1205243208123232	     -0.2783910733242677	      1.8830033887923847	      0.8295685994067504	     -0.2583088942606623	      1.8891722862054956	      0.8331374549705678	     -0.1488462164635510	      1.8768338586874413	      0.8259994417356505	     -0.3677715480848866	      1.7084709250078978	      0.8583366683217008	     -0.2109411745400288	      1.7074475773007212	      0.8563686927889691	     -0.2645671250270353	      1.9515067477332433	      0.4229810945607070	     -0.1378769865884909	      1.7337912883193076	      0.4066486214295739	     -0.3607569679117716	      1.9219439518872015	      0.4202249915796430	     -0.2606569829049301	      1.7601568587617753	      0.4136432362395945	     -0.2409627357556768	      1.9844702553541456	      0.0637135823733366	     -0.1683023360781700	      1.5223913105284668	      0.1234288045858008	     -0.3137852509295012	      1.9903177801579768	      0.0615357916701905	     -0.2391271371368246	      1.5306218709805879	      0.1250528065408637	     -0.2449118080057490	      1.8707180506043009	      1.1816428342680025	     -0.2540660620256979	      1.8801708447787340	      1.0800987794612604	     -0.2605152552968625	      1.7624490820573435	      1.2506485139960493	     -0.2470924078474088	      2.0713423119700720	      0.0549251851598179	     -0.2035691882689735	      1.5968245663970637	      0.0560045669488131	     -0.2846424493061193	      2.0173065836680868	      0.5900032263849665	     -0.1750703289769480	      1.8765215619770017	      0.5359181106539055	     -0.3945434717465009	      1.9601153357944550	      0.6096704091024645	     -0.1320556115078568	      1.8748057934048150	      0.5839106300010569	     -0.3267811855355020	      1.9659587485037553	      0.5528695000035211	     -0.1394998965559622	      1.8551026209347183	      0.5296965285942197	     -0.3158854948197131	      2.0881730096884521	      0.2022229346311534	     -0.1810207195166530	      1.5733289287496293	      0.2037518706344410	     -0.4108072751384867	      2.0145978031184524	      0.1759930103654726	     -0.1972006058348605	      1.5751107056576068	      0.1992052795533391	     -0.3317587884594732	      1.8730432973493591	      1.1797076045981800	     -0.1975938484301170	      1.8740026237724721	      1.1839233212625293	     -0.3043137181757346	
      0.7333333333333332	      1.9408594038010476	      0.0375727392362308	     -0.1948874731329658	      2.0474432693531086	      4.4514282653428081	      2.3247907503856355	      1.4820981343422548	      0.1245070756341490	     -0.2701214498527562	     -2.3547567774000271	      8.2308353366260576	    -34.7011715661924640	     -0.2617800268259669	      1.8933360908584556	      0.8186872355194432	      2.3701028770583648	     -1.3904070685205376	      3.2651875122531786	     18.6900784205333570	      3.3870956942550814	     -0.4539277348972015	    -16.0048377931022900	     -2.5464230628906686	      0.0000000000000000	      0.0000000000000000	    -13.5712872264671510	      1.8606183865394115	     -5.4755483279990322	    -26.9214747714747810	      3.4894368968168665	      0.0000000000000000	      0.0000000000000000	     -3.9988315669132435	      4.2886374083516161	     -3.4669275934886601	      1.9809948840581917	      0.0000000000000000	     -0.2024460368902203	    -46.6137507464253600	    274.2988406190477800	     -2.7367351729126894	      1.6248496122840614	      0.0000000000000000	     -0.2740664393129417	     48.5061376700251610	    208.4928802317188900	     -8.7187802738609967	      0.0000000000000000	     -0.1858308911045027	      0.0000000000000000	      0.0000000000000000	      0.3119975862334614	      0.0000000000000000	      1.8570128779310089	      0.7578107388944063	     -0.2617808215657078	      1.8521533564287671	      0.7564995009603492	     -0.2045741655235115	      1.8618720644018301	      0.7591218074911508	     -0.3189877212736672	      1.9230415033667529	      0.4162572837048525	     -0.1965796078482121	      1.7343465133390894	      0.4278512926524060	     -0.3054709145099903	      1.9893246706854539	      0.0651627832110159	     -0.2054044300300603	      1.5366239156432315	      0.1246392136251689	     -0.2794200331986523	      1.8909947060372134	      0.8309369110816333	     -0.2577771699520166	      1.8968671330808609	      0.8345319644063809	     -0.1482496579268608	      1.8851216452514452	      0.8273416814186113	     -0.3673046265720955	      1.7163257394144149	      0.8595973961568887	     -0.2114386219505420	      1.7161250929240364	      0.8574422953261053	     -0.2649559811618556	      1.9572185581896802	      0.4234492010285716	     -0.1376699057393367	      1.7445566974725297	      0.4069037893911071	     -0.3623787300964801	      1.9273097243608788	      0.4212852916677090	     -0.2604001251785007	      1.7709865929610458	      0.4134817937395287	     -0.2417128199723488	      1.9853410304343295	      0.0635930606371336	     -0.1681475075584444	      1.5279851658755395	      0.1277986596911367	     -0.3147489212202870	      1.9906036795901527	      0.0611674409923458	     -0.2389799612335248	      1.5367280999059274	      0.1291240848657589	     -0.2459337447392780	      1.8780991030242400	      1.1830452805516016	     -0.2533795601455567	      1.8876135453046101	      1.0815210019018364	     -0.2600584031697998	      1.7697493438820824	      1.2519814516001893	     -0.2459933808152493	      2.0718527765243340	      0.0537879766139521	     -0.2037180607541927	      1.5996887424958035	      0.0565122046547147	     -0.2851786383852549	      2.0241265594345426	      0.5900846256421108	     -0.1757543992775675	      1.8870430587123850	      0.5373037535639947	     -0.3943891882077711	      1.9677698428195531	      0.6107664560874804	     -0.1324577518314991	      1.8841316409263111	      0.5851737761975830	     -0.3264909361364681	      1.9732138618745281	      0.5537737191637272	     -0.1398732150607080	      1.8650843986877503	      0.5308602335206847	     -0.3158155466448551	      2.0908758659516624	      0.2008235641277707	     -0.1817300570955231	      1.5797909074511216	      0.2077047703148786	     -0.4119301723902771	      2.0167240531412149	      0.1751589049289438	     -0.1972530339884397	      1.5819712723683008	      0.2028258109269631	     -0.3328556891647217	      1.8805148796589772	      1.1809937893421791	     -0.1969892093440861	      1.8813025390577180	      1.1854326818990351	     -0.3035532872195830	
